<?xml version="1.0" standalone="no"?><!DOCTYPE svg PUBLIC "-//W3C//DTD SVG 1.1//EN" "http://www.w3.org/Graphics/SVG/1.1/DTD/svg11.dtd"><svg t="1783426969607" class="icon" viewBox="0 0 1024 1024" version="1.1" xmlns="http://www.w3.org/2000/svg" p-id="1151" xmlns:xlink="http://www.w3.org/1999/xlink" width="200" height="200"><path d="M95.829333 910.592a39.68 39.68 0 0 1-39.936-39.253333V225.706667c0-21.930667 18.090667-39.253333 39.936-39.253334h767.146667c22.272 0 39.936 17.834667 39.936 39.253334v645.461333a39.68 39.68 0 0 1-39.936 39.338667h-767.146667z" fill="#FFA000" p-id="1152"></path><path d="M499.712 373.333333H55.893333V158.378667c-0.085333-23.04 17.322667-41.813333 38.912-41.984h303.786667c17.237333 0 32.426667 11.946667 37.461333 29.952l63.658667 226.986666z" fill="#FFA000" p-id="1153"></path><path d="M780.970667 863.914667H183.210667c-18.944 0-33.962667-17.664-33.962667-38.912V295.424c0-21.76 15.36-38.912 33.962667-38.912h597.76c18.944 0 33.877333 17.749333 33.877333 38.912v529.578667c0.426667 21.248-14.933333 38.912-33.877333 38.912z" fill="#FFFFFF" p-id="1154"></path><path d="M95.829333 910.592a39.509333 39.509333 0 0 1-39.936-38.912l64-378.112c0-21.76 18.090667-38.997333 39.936-38.997333h767.146667c22.272 0 39.936 17.749333 39.936 38.997333l-64 378.026667a39.509333 39.509333 0 0 1-39.936 38.997333h-767.146667z" fill="#FFCA28" p-id="1155"></path><path d="M427.52 614.229333H209.92c-10.837333 0-19.968-9.301333-19.968-21.333333 0-11.605333 8.704-21.504 19.882667-21.504h217.173333c10.666667 0 19.882667 9.386667 19.882667 21.418667 0 11.605333-8.704 21.504-19.370667 21.504z m-64 144.042667H145.92c-10.837333 0-19.968-9.386667-19.968-21.333333 0-12.202667 8.704-21.504 19.882667-21.504h217.173333c10.666667 0 19.882667 9.386667 19.882667 21.418666 0 12.117333-8.704 21.418667-19.370667 21.418667z" fill="#FFF8E1" p-id="1156"></path></svg>