<?xml version="1.0" standalone="no"?><!DOCTYPE svg PUBLIC "-//W3C//DTD SVG 1.1//EN" "http://www.w3.org/Graphics/SVG/1.1/DTD/svg11.dtd"><svg t="1783427014223" class="icon" viewBox="0 0 1024 1024" version="1.1" xmlns="http://www.w3.org/2000/svg" p-id="2506" xmlns:xlink="http://www.w3.org/1999/xlink" width="200" height="200"><path d="M213.333333 64a85.333333 85.333333 0 0 0-85.333333 85.333333v725.333334a85.333333 85.333333 0 0 0 85.333333 85.333333h597.333334a85.333333 85.333333 0 0 0 85.333333-85.333333V330.666667L629.333333 64H213.333333z" fill="#4A9CFB" p-id="2507"></path><path d="M650.666667 330.666667H896L629.333333 64v245.333333a21.333333 21.333333 0 0 0 21.333334 21.333334z" fill="#FFFFFF" fill-opacity=".72" p-id="2508"></path><path d="M483.584 736l31.146667-150.848 9.109333-49.877333 9.088 49.877333 31.146667 150.848h51.456l72.618666-257.941333H633.386667l-34.474667 149.269333-7.893333 39.552-7.872-41.130667L552.533333 478.08h-56.874666l-29.056 148.565333-7.530667 40.256-7.338667-41.130666-34.133333-147.690667h-57.216L433.536 736h50.048z" fill="#FFFFFF" p-id="2509"></path></svg>