<?xml version="1.0" standalone="no"?><!DOCTYPE svg PUBLIC "-//W3C//DTD SVG 1.1//EN" "http://www.w3.org/Graphics/SVG/1.1/DTD/svg11.dtd"><svg t="1783498142954" class="icon" viewBox="0 0 1024 1024" version="1.1" xmlns="http://www.w3.org/2000/svg" p-id="9689" xmlns:xlink="http://www.w3.org/1999/xlink" width="200" height="200"><path d="M192 64h448l256 256v576a64 64 0 0 1-64 64H192a64 64 0 0 1-64-64V128a64 64 0 0 1 64-64z" fill="#40A7F2" p-id="9690"></path><path d="M288 672v-224h62.624l62.592 89.6L475.84 448h62.592v224H475.84v-149.12l-62.624 88.96-62.624-88.96V672H288zM642.784 560V448h62.624v112H768L674.08 672l-93.92-112h62.624z" fill="#FFFFFF" p-id="9691"></path><path d="M640 64l256 256h-192a64 64 0 0 1-64-64V64z" fill="#7EC9FF" p-id="9692"></path></svg>